<?xml version="1.0" encoding="utf-8"?>
<!-- Generator: Adobe Illustrator 28.1.0, SVG Export Plug-In . SVG Version: 6.00 Build 0)  -->
<svg version="1.1" xmlns="http://www.w3.org/2000/svg" xmlns:xlink="http://www.w3.org/1999/xlink" x="0px" y="0px"
	 viewBox="0 0 1717 1200" style="enable-background:new 0 0 1717 1200;" xml:space="preserve">
<style type="text/css">
	.st0{fill:#FFFFFF;}
	.st1{clip-path:url(#SVGID_00000152236589193765491870000006371693578418527888_);fill:#F4AEA6;}
	.st2{clip-path:url(#SVGID_00000152236589193765491870000006371693578418527888_);fill:#D3F0EE;}
	.st3{clip-path:url(#SVGID_00000152236589193765491870000006371693578418527888_);fill:#478499;}
	.st4{clip-path:url(#SVGID_00000152236589193765491870000006371693578418527888_);fill:#47849A;}
</style>
<g id="Calque_3">
	<rect class="st0" width="1717" height="1197.82"/>
</g>
<g id="Calque_2">
	<g>
		<defs>
			<rect id="SVGID_1_" y="-2.18" width="1717" height="1200"/>
		</defs>
		<clipPath id="SVGID_00000134937371608675681950000012216620382884723390_">
			<use xlink:href="#SVGID_1_"  style="overflow:visible;"/>
		</clipPath>
		<path style="clip-path:url(#SVGID_00000134937371608675681950000012216620382884723390_);fill:#F4AEA6;" d="M2.82,469.98
			c206.25-31,195.74-443.72,518.2-458.32c44.06-2,86.53-29.94,44.58-34.59C506.22-29.52,334.82-20.99,284.53,0
			C177.42,44.72,172.42,202.68-9.75,247.65C-31.15,252.93-18.97,473.26,2.82,469.98z"/>
		<path style="clip-path:url(#SVGID_00000134937371608675681950000012216620382884723390_);fill:#D3F0EE;" d="M519.1,142.72
			c-8.07,15.37,32.33-15.73,76.87-43.05c122.22-74.95,179.45,83.65,8.46,122.22c-102.23,23.06-118.76,42.28-95.32,168.34
			s-134.14,134.52-146.05,125.3c-11.91-9.22-104.34-50.06,0-196.78c24.6-34.59-40.55-142.73,111.46-209.08
			C571.37,67.39,519.1,142.72,519.1,142.72z"/>
		<path style="clip-path:url(#SVGID_00000134937371608675681950000012216620382884723390_);fill:#478499;" d="M545,642.17
			c-154.51,84.56-192.7-132.78-330.68-12.87c-42.36,36.81-13.78,101.68,63.42,127.22c49.96,16.53,109.17,284.74,225.25,314.06
			c148.39,37.49,147.92-119.36,113.74-176.85c-6.81-11.45-0.77-33.05,94.78-59.96c86.57-24.38,130.06-180.26,51.27-282.88
			c-48.95-63.75-35.67-120.9-20.75-133.75c36.13-31.13,28.01-145.97-41.89-91.09C549.85,444.05,697.22,558.86,545,642.17z"/>
		<path style="clip-path:url(#SVGID_00000134937371608675681950000012216620382884723390_);fill:#F4AEA6;" d="M1050.28,887.12
			c16.4,38.95,116.84,50.22,117.86,88.14c0.51,18.77-31.02,99.87-115.58,140.23c-23.79,11.36-73.79-2.69-105.83,18.37
			c-111.92,73.59-94.59,14.12-100.94-16.84c0,0-172.57-102.62,37.67-290.18c61.02-54.44,58.78-140.64,110.31-189.48
			c29.59-28.06,62.21-28.44,92.86-11.05c44.73,25.37,39.2,85.56,8.57,129.52C1059.44,807.16,1033.98,848.41,1050.28,887.12z"/>
		<path style="clip-path:url(#SVGID_00000134937371608675681950000012216620382884723390_);fill:#D3F0EE;" d="M-26.26,823.7
			c60.85-35.56,145.83-120.26,196.14-49.32c39.97,56.35,50.56,157.03,62.52,250.08c12.36,96.22,132.98,130.14,116.84,175.54
			c-30.62,86.12-388.44,19.19-388.44,19.19L-26.26,823.7z"/>
		<path style="clip-path:url(#SVGID_00000134937371608675681950000012216620382884723390_);fill:#D3F0EE;" d="M1299.31,668.5
			c-47.27,66.11-76.44,106.77-85.05,174.55c-9.61,75.72,73.69,144.65,99.65,153.68c53.04,18.45,134.38-6.9,78.41-186.02
			c-19.22-61.49,59.96-101.85,80.71-39.97c10.14,30.24,86.09,66.88,110.69-6.92c24.6-73.79,2.31-130.29-91.09-104.93
			c-76.29,20.72-45.13-35.25-58.04-53.42C1415.77,578.95,1329.24,626.66,1299.31,668.5z"/>
		<path style="clip-path:url(#SVGID_00000134937371608675681950000012216620382884723390_);fill:#D3F0EE;" d="M971.09,344.12
			c34.83,55.47,26.9,144.13,51.5,178.33c24.6,34.21,69.95,60.34,111.46,26.9c41.51-33.44,73.49-123.92-81.48-193.71
			c-72.69-32.73,96.85-44.24,141.44,36.9c32.91,59.89,12.68,99.54-13.07,146.82c-25.75,47.27,51.01,71.56,95.32,6.15
			c64.57-95.32-7.58-185.14-89.94-267.5c-36.9-36.9,15.26-66.25,45.35-93.78c18.06-16.53,54.96-65.72,15.37-89.17
			s-71.87,22.29-99.93,40.74c-28.06,18.45-100.31,59.96-93.78-23.06s-31.52-60.34-67.64-43.05
			c-19.56,9.36-100.47,63.6-101.08,131.06C884.09,257.89,961.57,328.96,971.09,344.12z"/>
		<path style="clip-path:url(#SVGID_00000134937371608675681950000012216620382884723390_);fill:#47849A;" d="M1720.55,708.47
			c-38.05,2.31-73.02,103.77-89.17,152.2c-16.14,48.43-144.13,113.38-207.54,176.8s-45.35,152.49-33.05,162.53s360.51,0,360.51,0
			L1720.55,708.47z"/>
		<path style="clip-path:url(#SVGID_00000134937371608675681950000012216620382884723390_);fill:#47849A;" d="M1479.95-11.78
			c-27.29,31.13-17.68,47.27,14.6,55.35s75.33,36.51,49.2,108.38c0,0,7.88,144.56,35.36,157.58c29.21,13.84,43.05-21.52,56.11-38.43
			s27.93-52.91,81.77,0.77c31.22,31.13,41.6,72.26,18.16,76.87c-23.44,4.61-15.39-14.65-43.05-16.14
			c-42.66-2.31-154.23,117.02-213.42,82.05s-11.91-137.47-43.05-179.36s-59.85-111-4.12-239.37
			C1487.26-132.47,1479.95-11.78,1479.95-11.78z"/>
	</g>
</g>
</svg>
